<svg width="33" height="32" viewBox="0 0 33 32" fill="none" xmlns="http://www.w3.org/2000/svg">
<g id="solar:headphones-round-line-duotone">
<g id="Group">
<path id="Vector" d="M28.8994 22.6667V16C28.8994 14.4241 28.589 12.8637 27.986 11.4078C27.3829 9.95189 26.499 8.62902 25.3847 7.51472C24.2704 6.40042 22.9475 5.5165 21.4916 4.91345C20.0357 4.31039 18.4753 4 16.8994 4C15.3236 4 13.7631 4.31039 12.3072 4.91345C10.8513 5.5165 9.52844 6.40042 8.41413 7.51472C7.29983 8.62902 6.41592 9.95189 5.81286 11.4078C5.2098 12.8637 4.89941 14.4241 4.89941 16V22.6667" stroke="url(#paint0_linear_191_7381)" stroke-width="1.5"/>
<path id="Vector_2" d="M30.2331 20.6665V23.3332M3.56641 20.6665V23.3332" stroke="url(#paint1_linear_191_7381)" stroke-width="1.5" stroke-linecap="round"/>
<path id="Vector_3" d="M11.5661 18.4599C11.5661 17.4399 11.5661 16.9306 11.3327 16.5759C11.2172 16.3994 11.0619 16.2524 10.8794 16.1466C10.5181 15.9386 10.0301 15.9866 9.05541 16.0826C7.41275 16.2439 6.59141 16.3252 6.00208 16.7679C5.70264 16.9947 5.45303 17.2806 5.26875 17.6079C4.89941 18.2626 4.89941 19.1199 4.89941 20.8386V22.9252C4.89941 24.6252 4.89941 25.4759 5.27541 26.1332C5.41675 26.3786 5.59275 26.5999 5.79808 26.7892C6.34875 27.2959 7.15008 27.4559 8.75541 27.7706C9.88475 27.9932 10.4501 28.1052 10.8674 27.8706C11.0222 27.783 11.1582 27.6656 11.2674 27.5252C11.5661 27.1412 11.5661 26.5439 11.5661 25.3466V18.4599ZM22.2327 18.4599C22.2327 17.4399 22.2327 16.9306 22.4661 16.5759C22.5834 16.3986 22.7381 16.2506 22.9194 16.1466C23.2807 15.9386 23.7687 15.9866 24.7434 16.0826C26.3861 16.2439 27.2074 16.3252 27.7967 16.7679C28.0941 16.9932 28.3434 17.2786 28.5301 17.6079C28.8994 18.2612 28.8994 19.1186 28.8994 20.8372V22.9239C28.8994 24.6239 28.8994 25.4746 28.5234 26.1319C28.3834 26.3772 28.2061 26.5986 28.0007 26.7879C27.4501 27.2946 26.6487 27.4546 25.0434 27.7692C23.9141 27.9919 23.3487 28.1039 22.9314 27.8692C22.7765 27.7817 22.6406 27.6643 22.5314 27.5239C22.2327 27.1412 22.2327 26.5439 22.2327 25.3466V18.4599Z" stroke="url(#paint2_linear_191_7381)" stroke-width="1.5"/>
</g>
</g>
<defs>
<linearGradient id="paint0_linear_191_7381" x1="16.8994" y1="4" x2="16.8994" y2="22.6667" gradientUnits="userSpaceOnUse">
<stop stop-color="#33B2C7"/>
<stop offset="1" stop-color="#268695"/>
</linearGradient>
<linearGradient id="paint1_linear_191_7381" x1="16.8997" y1="20.6665" x2="16.8997" y2="23.3332" gradientUnits="userSpaceOnUse">
<stop stop-color="#33B2C7"/>
<stop offset="1" stop-color="#268695"/>
</linearGradient>
<linearGradient id="paint2_linear_191_7381" x1="16.8994" y1="16.0005" x2="16.8994" y2="28.0009" gradientUnits="userSpaceOnUse">
<stop stop-color="#33B2C7"/>
<stop offset="1" stop-color="#268695"/>
</linearGradient>
</defs>
</svg>
