<svg width="33" height="32" viewBox="0 0 33 32" fill="none" xmlns="http://www.w3.org/2000/svg">
<g id="Notepad">
<g id="Group 22">
<path id="Union" fill-rule="evenodd" clip-rule="evenodd" d="M2 16.4828V22.7115C2 23.5014 2.27563 24.2751 2.79009 24.859C3.30724 25.446 4.03053 25.7974 4.80814 25.7974H14.4128C15.1904 25.7974 15.9137 25.446 16.4308 24.859C16.9453 24.2751 17.2209 23.5014 17.2209 22.7115V16.4828V15.3146V9.08587C17.2209 8.29594 16.9453 7.52222 16.4308 6.93834C15.9137 6.3514 15.1904 6 14.4128 6H4.80814C4.03053 6 3.30724 6.3514 2.79009 6.93834C2.27563 7.52222 2 8.29594 2 9.08587V15.3146V16.4828ZM3.5 15.3146V16.4828V22.7115C3.5 23.1606 3.65805 23.5751 3.91554 23.8674C4.17034 24.1566 4.49404 24.2974 4.80814 24.2974H14.4128C14.7269 24.2974 15.0506 24.1566 15.3054 23.8674C15.5629 23.5751 15.7209 23.1606 15.7209 22.7115V16.4828V15.3146V9.08587C15.7209 8.63677 15.5629 8.22222 15.3054 7.92998C15.0506 7.6408 14.7269 7.5 14.4128 7.5H4.80814C4.49404 7.5 4.17034 7.6408 3.91554 7.92998C3.65805 8.22222 3.5 8.63677 3.5 9.08587V15.3146Z" fill="url(#paint0_linear_191_7399)"/>
<path id="Union_2" fill-rule="evenodd" clip-rule="evenodd" d="M16 16.4828V22.7115C16 23.5014 16.2756 24.2751 16.7901 24.859C17.3072 25.446 18.0305 25.7974 18.8081 25.7974H28.4128C29.1904 25.7974 29.9137 25.446 30.4308 24.859C30.9453 24.2751 31.2209 23.5014 31.2209 22.7115V16.4828V15.3146V9.08587C31.2209 8.29594 30.9453 7.52222 30.4308 6.93834C29.9137 6.3514 29.1904 6 28.4128 6H18.8081C18.0305 6 17.3072 6.3514 16.7901 6.93834C16.2756 7.52222 16 8.29594 16 9.08587V15.3146V16.4828ZM17.5 15.3146V16.4828V22.7115C17.5 23.1606 17.658 23.5751 17.9155 23.8674C18.1703 24.1566 18.494 24.2974 18.8081 24.2974H28.4128C28.7269 24.2974 29.0506 24.1566 29.3054 23.8674C29.5629 23.5751 29.7209 23.1606 29.7209 22.7115V16.4828V15.3146V9.08587C29.7209 8.63677 29.5629 8.22222 29.3054 7.92998C29.0506 7.6408 28.7269 7.5 28.4128 7.5H18.8081C18.494 7.5 18.1703 7.6408 17.9155 7.92998C17.658 8.22222 17.5 8.63677 17.5 9.08587V15.3146Z" fill="url(#paint1_linear_191_7399)"/>
</g>
<g id="Group 21">
<rect id="Rectangle 31" x="6" y="2" width="20" height="28" rx="3" fill="white"/>
<path id="Vector" d="M12.5 13H20.5" stroke="url(#paint2_linear_191_7399)" stroke-width="1.5" stroke-linecap="round" stroke-linejoin="round"/>
<path id="Vector_2" d="M12.5 17H20.5" stroke="url(#paint3_linear_191_7399)" stroke-width="1.5" stroke-linecap="round" stroke-linejoin="round"/>
<path id="Vector_3" d="M12.5 21H20.5" stroke="url(#paint4_linear_191_7399)" stroke-width="1.5" stroke-linecap="round" stroke-linejoin="round"/>
<path id="Union_3" fill-rule="evenodd" clip-rule="evenodd" d="M5.5 16.8771V15.0623V5.38051C5.5 4.2601 5.86656 3.16332 6.55053 2.33561C7.23787 1.5038 8.20424 1 9.25 1H23.25C24.2958 1 25.2621 1.5038 25.9495 2.33561C26.6334 3.16332 27 4.2601 27 5.38051V15.0623V16.8771V26.5589C27 27.6793 26.6334 28.7761 25.9495 29.6038C25.2621 30.4356 24.2958 30.9394 23.25 30.9394H9.25C8.20424 30.9394 7.23787 30.4356 6.55053 29.6038C5.86656 28.7761 5.5 27.6793 5.5 26.5589V16.8771ZM25.5 16.8771V15.0623V5.38051C25.5 4.57518 25.2344 3.82508 24.7932 3.2911C24.3553 2.7612 23.7955 2.5 23.25 2.5H9.25C8.70446 2.5 8.1447 2.7612 7.70683 3.2911C7.26558 3.82508 7 4.57518 7 5.38051V15.0623V16.8771V26.5589C7 27.3643 7.26558 28.1144 7.70683 28.6483C8.1447 29.1782 8.70446 29.4394 9.25 29.4394H23.25C23.7955 29.4394 24.3553 29.1782 24.7932 28.6483C25.2344 28.1144 25.5 27.3643 25.5 26.5589V16.8771Z" fill="url(#paint5_linear_191_7399)"/>
</g>
</g>
<defs>
<linearGradient id="paint0_linear_191_7399" x1="9.61047" y1="6" x2="9.61047" y2="25.7974" gradientUnits="userSpaceOnUse">
<stop stop-color="#337845"/>
<stop offset="1" stop-color="#265A35"/>
</linearGradient>
<linearGradient id="paint1_linear_191_7399" x1="23.6105" y1="6" x2="23.6105" y2="25.7974" gradientUnits="userSpaceOnUse">
<stop stop-color="#337845"/>
<stop offset="1" stop-color="#265A35"/>
</linearGradient>
<linearGradient id="paint2_linear_191_7399" x1="16.5" y1="13" x2="16.5" y2="14" gradientUnits="userSpaceOnUse">
<stop stop-color="#337845"/>
<stop offset="1" stop-color="#265A35"/>
</linearGradient>
<linearGradient id="paint3_linear_191_7399" x1="16.5" y1="17" x2="16.5" y2="18" gradientUnits="userSpaceOnUse">
<stop stop-color="#337845"/>
<stop offset="1" stop-color="#265A35"/>
</linearGradient>
<linearGradient id="paint4_linear_191_7399" x1="16.5" y1="21" x2="16.5" y2="22" gradientUnits="userSpaceOnUse">
<stop stop-color="#337845"/>
<stop offset="1" stop-color="#265A35"/>
</linearGradient>
<linearGradient id="paint5_linear_191_7399" x1="16.25" y1="1" x2="16.25" y2="30.9394" gradientUnits="userSpaceOnUse">
<stop stop-color="#337845"/>
<stop offset="1" stop-color="#265A35"/>
</linearGradient>
</defs>
</svg>
