<svg width="33" height="32" viewBox="0 0 33 32" fill="none" xmlns="http://www.w3.org/2000/svg">
<g id="PenNibStraight" clip-path="url(#clip0_191_7428)">
<path id="Vector" d="M16.0996 19C17.4803 19 18.5996 17.8807 18.5996 16.5C18.5996 15.1193 17.4803 14 16.0996 14C14.7189 14 13.5996 15.1193 13.5996 16.5C13.5996 17.8807 14.7189 19 16.0996 19Z" stroke="url(#paint0_linear_191_7428)" stroke-width="1.5" stroke-linecap="round" stroke-linejoin="round"/>
<path id="Vector_2" d="M16.0996 19V31" stroke="url(#paint1_linear_191_7428)" stroke-width="1.5" stroke-linecap="round" stroke-linejoin="round"/>
<path id="Vector_3" d="M9.09944 9L5.20319 15.9288C5.12187 16.0932 5.08737 16.2769 5.10346 16.4597C5.11956 16.6424 5.18563 16.8173 5.29444 16.965L16.0994 31L26.9032 16.965C27.012 16.8173 27.0781 16.6424 27.0942 16.4597C27.1103 16.2769 27.0758 16.0932 26.9944 15.9288L23.0994 9H9.09944Z" stroke="url(#paint2_linear_191_7428)" stroke-width="1.5" stroke-linecap="round" stroke-linejoin="round"/>
<path id="Vector_4" d="M23.0996 9V4C23.0996 3.73478 22.9943 3.48043 22.8067 3.29289C22.6192 3.10536 22.3648 3 22.0996 3H10.0996C9.83439 3 9.58004 3.10536 9.3925 3.29289C9.20497 3.48043 9.09961 3.73478 9.09961 4V9" stroke="url(#paint3_linear_191_7428)" stroke-width="1.5" stroke-linecap="round" stroke-linejoin="round"/>
</g>
<defs>
<linearGradient id="paint0_linear_191_7428" x1="16.0996" y1="14" x2="16.0996" y2="19" gradientUnits="userSpaceOnUse">
<stop stop-color="#FAA859"/>
<stop offset="1" stop-color="#BB7F44"/>
</linearGradient>
<linearGradient id="paint1_linear_191_7428" x1="16.5996" y1="19" x2="16.5996" y2="31" gradientUnits="userSpaceOnUse">
<stop stop-color="#FAA859"/>
<stop offset="1" stop-color="#BB7F44"/>
</linearGradient>
<linearGradient id="paint2_linear_191_7428" x1="16.0988" y1="9" x2="16.0988" y2="31" gradientUnits="userSpaceOnUse">
<stop stop-color="#FAA859"/>
<stop offset="1" stop-color="#BB7F44"/>
</linearGradient>
<linearGradient id="paint3_linear_191_7428" x1="16.0996" y1="3" x2="16.0996" y2="9" gradientUnits="userSpaceOnUse">
<stop stop-color="#FAA859"/>
<stop offset="1" stop-color="#BB7F44"/>
</linearGradient>
<clipPath id="clip0_191_7428">
<rect width="32" height="32" fill="white" transform="translate(0.0996094)"/>
</clipPath>
</defs>
</svg>
