<?xml version="1.0" encoding="UTF-8"?>
<svg width="77px" height="77px" viewBox="0 0 77 77" version="1.1" xmlns="http://www.w3.org/2000/svg" xmlns:xlink="http://www.w3.org/1999/xlink">
    <!-- Generator: Sketch 53 (72520) - https://sketchapp.com -->
    <title>Countdown</title>
    <desc>Created with Sketch.</desc>
    <g id="Countdown" stroke="none" stroke-width="1" fill="none" fill-rule="evenodd">
        <g id="time" fill="#C86478" fill-rule="nonzero">
            <path d="M11.6542473,11.5207444 L11.6542473,11.5501175 C11.6612832,11.6035767 11.671837,11.6564483 11.6864949,11.7081451 C11.6935307,11.8162383 11.7152244,11.9225693 11.7504035,12.0247879 C11.7949637,12.1211319 11.8512503,12.2110137 11.9180906,12.2932587 C11.9444749,12.3414307 11.9737909,12.3884277 12.0066247,12.433075 L12.0195236,12.4418869 C12.108644,12.5270691 12.210077,12.5981521 12.3203048,12.6539612 C12.3554839,12.680397 12.392422,12.705658 12.4305327,12.7279815 C12.484474,12.7432556 12.5390015,12.7555923 12.5947018,12.7638169 C12.6990665,12.8002395 12.8081216,12.8225632 12.9183494,12.8296128 L12.9353528,12.8331375 L23.1806774,12.8331375 C23.8883635,12.8331375 24.4617827,12.2585984 24.4617827,11.5501175 C24.4617827,10.8410493 23.8883635,10.2670974 23.1806774,10.2670974 L16.3635553,10.2670974 C31.9238548,-2.00912476 54.4707222,0.677345238 66.7230141,16.2680359 C71.4364264,22.2660371 74.1211774,29.6122666 74.3867797,37.2416534 C74.4108187,37.9330979 74.9772022,38.4817886 75.667885,38.4812012 L75.7124452,38.4812012 C76.4189586,38.4571152 76.972443,37.8637771 76.948404,37.1558838 C76.2149199,15.9126206 58.4324744,-0.712005615 37.2312074,0.0234985352 C28.8157819,0.315467797 20.7292809,3.36968994 14.2158718,8.71678169 L14.2158718,1.28419487 C14.2158718,0.575714111 13.6424525,0.00117492676 12.9353528,0.00117492676 C12.2276666,0.00117492676 11.6542473,0.575714111 11.6542473,1.28419487 L11.6542473,11.5207444 Z" id="Path"></path>
            <path d="M15.2401696,65.8088227 C14.7031021,65.3482514 13.8945692,65.4116973 13.4343095,65.9498139 C12.974636,66.4885178 13.0379584,67.2986298 13.5756121,67.7592011 C14.5834932,68.6233596 15.6347617,69.436409 16.7247274,70.1936494 C17.308114,70.5984116 18.1078521,70.4521333 18.511239,69.8681946 C18.914626,69.2836685 18.7692191,68.4823684 18.1858324,68.0776062 C17.1662251,67.3720627 16.1829693,66.6148223 15.2401696,65.8088227 Z" id="Path"></path>
            <path d="M24.6728572,71.6399841 C23.5336409,71.159439 22.4196364,70.6207351 21.3355339,70.0256348 C20.7152093,69.684906 19.9365787,69.9128418 19.5971004,70.534378 C19.2570358,71.1559143 19.4845273,71.9354782 20.1048519,72.276207 C21.2663484,72.9141922 22.4606786,73.4916687 23.6813932,74.0062866 C24.3304474,74.288269 25.085039,73.9898376 25.3664717,73.3401031 C25.6479045,72.6897812 25.3500548,71.9337158 24.7015868,71.6517334 C24.6922057,71.6476211 24.6828246,71.6440964 24.6728572,71.6399841 Z" id="Path"></path>
            <path d="M10.1421326,60.4294204 C9.71763835,59.8625183 8.91496859,59.7473755 8.34917154,60.1721115 C7.78278806,60.5968476 7.66786984,61.4016724 8.09236408,61.9685745 C8.09940005,61.9785615 8.10702215,61.9879609 8.11464425,61.9979477 C8.92434968,63.0483323 9.78682383,64.0570068 10.699135,65.0198594 C11.1869518,65.5333023 11.9978299,65.5538635 12.5108582,65.065094 C13.0233004,64.5769119 13.0438216,63.7638626 12.5560048,63.2504197 C11.7034981,62.352188 10.8973105,61.4110718 10.1421326,60.4294204 Z" id="Path"></path>
            <path d="M4.80663689,50.6963272 C4.38741932,49.5307998 4.02859257,48.3435364 3.73191547,47.1404114 C3.5501569,46.4560166 2.8489203,46.0483169 2.16527317,46.2304306 C1.49804311,46.4078445 1.09113818,47.0834275 1.24592619,47.7578354 C1.56429703,49.0461426 1.94892178,50.3174133 2.3986279,51.5663604 C2.63843202,52.2331314 3.37250244,52.5791474 4.03797366,52.3388748 C4.70344488,52.0986023 5.04878628,51.3630981 4.80898202,50.6963272 L4.80663689,50.6963272 Z" id="Path"></path>
            <path d="M8.03138699,57.3757859 C7.37998755,56.3218765 6.78428823,55.2356567 6.24604803,54.1200637 C5.94937108,53.4762039 5.18891623,53.1953965 4.54631145,53.4920654 C3.90429311,53.7893218 3.62403292,54.5512619 3.92012373,55.1951218 C3.92657312,55.2092209 3.93360894,55.22332 3.94064476,55.2374192 C4.51758189,56.4329072 5.15549612,57.5978469 5.85262861,58.7269516 C6.23549437,59.3226394 7.02819661,59.4947662 7.62272322,59.1111526 C8.20317834,58.7369385 8.38317792,57.9697114 8.03021442,57.3751983 L8.03138699,57.3751983 L8.03138699,57.3757859 Z" id="Path"></path>
            <path d="M1.94129968,44.9421235 C2.63784574,44.8440171 3.12507607,44.2013321 3.03243787,43.5028381 C2.86181922,42.2756272 2.75452295,41.0401917 2.71113548,39.8018188 C2.70292695,39.1091995 2.13654362,38.5546341 1.44527439,38.562271 C1.42533965,38.5628586 1.40540475,38.563446 1.38547001,38.564621 C0.678956581,38.5898819 0.126644737,39.1838074 0.150683784,39.8917007 C0.198175485,41.2176055 0.313094008,42.5405732 0.495438864,43.8553162 C0.583386673,44.4886016 1.123972,44.9603347 1.76188623,44.9615097 C1.82227705,44.9597473 1.88208143,44.9532852 1.94129968,44.9421235 Z" id="Path"></path>
            <path d="M31.7620309,73.7865752 C30.5477659,73.5539399 29.3463999,73.2590332 28.1632096,72.901268 C27.491289,72.6797944 26.7671859,73.0451965 26.5455577,73.7184296 C26.3245156,74.3916626 26.6897919,75.1171799 27.3611263,75.3386536 C27.3816474,75.3457031 27.4021686,75.3515777 27.4226898,75.3574524 C28.6908962,75.7416534 29.9790373,76.0588837 31.2806637,76.3085556 C31.360403,76.3232422 31.4413148,76.3302917 31.5222268,76.3302917 C32.2299128,76.3285293 32.8021594,75.7534028 32.8009868,75.0443344 C32.7998143,74.4304351 32.3641798,73.9028931 31.7620309,73.7865752 Z" id="Path"></path>
            <path d="M71.419423,55.8871536 C70.8067205,55.5335007 70.0233994,55.7449875 69.6710222,56.3594741 C69.6704359,56.3594741 69.6704359,56.3600616 69.6698495,56.3606491 C69.0536291,57.4345322 68.3828811,58.4766922 67.660537,59.4824295 C67.247769,60.0581436 67.378518,60.8600312 67.9525234,61.2741928 C68.5271153,61.6877671 69.3274396,61.5567627 69.7407941,60.981636 C70.5141477,59.9042282 71.2323876,58.7886353 71.8919956,57.6389695 C72.2443728,57.0238953 72.032712,56.2402192 71.419423,55.8871536 Z" id="Path"></path>
            <path d="M65.3410621,62.377449 C64.5196302,63.3038789 63.6507066,64.1868362 62.7378092,65.0222092 C62.2153996,65.5004043 62.1796342,66.3122788 62.6568972,66.8357085 C63.1341603,67.358551 63.944452,67.3949737 64.4662753,66.9161911 C65.4442541,66.0203095 66.3759137,65.0744934 67.2571501,64.0828552 C67.7273772,63.5517883 67.6781265,62.738739 67.1475085,62.2681809 C66.6174769,61.7970352 65.8060124,61.8457947 65.3363716,62.377449 L65.3410621,62.377449 Z" id="Path"></path>
            <path d="M74.2818287,48.7535859 C73.6093217,48.5356369 72.8869776,48.9057388 72.6694537,49.5801468 C72.2883467,50.7568359 71.8462627,51.9135513 71.345547,53.0444184 C71.0588375,53.692978 71.3514103,54.4508057 71.9981192,54.7380752 C72.6448282,55.0247573 73.4011788,54.7322007 73.6878884,54.0842285 C74.2249559,52.8693542 74.6981146,51.6268692 75.1056058,50.362648 C75.3190256,49.6905899 74.951404,48.9721221 74.2818287,48.7535859 Z" id="Path"></path>
            <path d="M75.616289,41.1852951 C74.9132934,41.1100998 74.2830014,41.620018 74.2079527,42.3243867 C74.0772037,43.5562973 73.8831323,44.7811584 73.6274976,45.9930954 C73.4815044,46.6863022 73.9235882,47.3671723 74.6148575,47.5140381 C74.7028051,47.5328369 74.7919255,47.5422363 74.8816323,47.5422363 C75.4861263,47.5410615 76.0073633,47.1169128 76.1328353,46.5241623 C76.4078187,45.2264556 76.6153752,43.9146499 76.7549191,42.5952073 C76.8287951,41.8908386 76.3192846,41.2599029 75.616289,41.1852951 Z" id="Path"></path>
            <path d="M46.4903448,73.5457153 C45.2842882,73.8182983 44.0653326,74.0280227 42.8375823,74.1743012 C42.135173,74.2583084 41.6332846,74.8962937 41.7171281,75.6000747 C41.7933494,76.244522 42.3386255,76.7303543 42.9859208,76.7321167 C43.0375168,76.7321167 43.0891128,76.7291794 43.1401224,76.7227173 C44.4558206,76.5658645 45.7627239,76.3414536 47.0549693,76.0494843 C47.7450658,75.8926316 48.1777686,75.2058868 48.021808,74.5144424 C47.8658474,73.822998 47.1804413,73.3894501 46.4903448,73.5457153 Z" id="Path"></path>
            <path d="M39.13381,74.4286728 L38.549837,74.4286728 C37.503259,74.4286728 36.453163,74.3822632 35.4300378,74.3000183 C34.7370097,74.2301101 34.1184439,74.7365036 34.048672,75.4314727 C34.0474995,75.4438095 34.0463268,75.4555588 34.0457405,75.4678955 C33.9847634,76.1740264 34.507173,76.7955627 35.2119274,76.8560715 C35.2119274,76.8560715 35.2119274,76.8560715 35.2125137,76.8560715 C36.3059971,76.9500657 37.429383,76.9988251 38.5486645,77 L39.1813017,77 C39.8884016,76.9870757 40.4512671,76.4019624 40.438368,75.692894 C40.4248828,74.9844131 39.8409098,74.4204483 39.13381,74.4333725 L39.13381,74.4286728 Z" id="Path"></path>
            <path d="M53.5021245,71.1664887 C52.3787388,71.6828689 51.2289688,72.1410904 50.0580912,72.5382156 C49.3879294,72.765564 49.0285163,73.4940186 49.2554215,74.1654892 C49.4817403,74.8369599 50.2093613,75.1970749 50.879523,74.9697266 C52.1354167,74.5444031 53.3684439,74.0526963 54.5727415,73.4969558 C55.2235548,73.2190857 55.526095,72.4653701 55.2487665,71.8132859 C54.9714379,71.1612014 54.2191916,70.8580703 53.5683784,71.1359405 C53.5460984,71.1453399 53.5238182,71.1559143 53.5021245,71.1664887 Z" id="Path"></path>
            <path d="M59.8777488,67.3861618 C58.8821805,68.1222534 57.8502605,68.8078232 56.7860928,69.4393462 C56.1774946,69.8006363 55.9763874,70.5878372 56.3369732,71.1982117 C56.6975587,71.8079986 57.4838115,72.0089111 58.0924098,71.6476211 C59.2316262,70.9708633 60.3362497,70.2365342 61.4004172,69.4469834 C61.9820449,69.043396 62.1268655,68.2438584 61.7234786,67.6616821 C61.3206779,67.0789185 60.5226989,66.933815 59.9416575,67.3374023 C59.9199637,67.3526763 59.89827,67.3685379 59.8777488,67.3849868 L59.8777488,67.3861618 Z" id="Path"></path>
        </g>
    </g>
</svg>