<svg width="80" height="80" viewBox="0 0 80 80" fill="none" xmlns="http://www.w3.org/2000/svg">
<g id="information 1" clip-path="url(#clip0_1122_62219)">
<g id="Group">
<g id="Group_2">
<path id="XMLID_220_" opacity="0.3" d="M39.9994 70.594C56.8933 70.594 70.5886 56.8987 70.5886 40.0047C70.5886 23.1108 56.8933 9.41553 39.9994 9.41553C23.1054 9.41553 9.41016 23.1108 9.41016 40.0047C9.41016 56.8987 23.1054 70.594 39.9994 70.594Z" fill="#337845"/>
</g>
<g id="Group_3">
<path id="XMLID_225_" d="M22.3431 74.1384C39.7515 83.1702 61.4962 77.6182 72.3203 60.7959C83.8056 42.9459 78.6461 19.1649 60.7961 7.67963C42.9461 -3.80569 19.1651 1.35385 7.67982 19.2038C-2.50081 35.0262 0.395913 55.5082 13.6183 67.9556L9.02357 75.0963L22.3431 74.1384Z" stroke="#284664" stroke-width="1.5" stroke-miterlimit="10" stroke-linecap="round" stroke-linejoin="round"/>
<path id="XMLID_83_" d="M36.0781 58.8291V36.8675C36.0781 34.7016 37.8339 32.9458 39.9998 32.9458C42.1658 32.9458 43.9216 34.7016 43.9216 36.8675V58.8291C43.9216 60.995 42.1658 62.7508 39.9998 62.7508C37.8339 62.7506 36.0781 60.9949 36.0781 58.8291Z" stroke="#284664" stroke-width="1.5" stroke-miterlimit="10" stroke-linecap="round" stroke-linejoin="round"/>
<path id="XMLID_221_" d="M39.9998 25.1022C42.1657 25.1022 43.9216 23.3464 43.9216 21.1805C43.9216 19.0146 42.1657 17.2588 39.9998 17.2588C37.8339 17.2588 36.0781 19.0146 36.0781 21.1805C36.0781 23.3464 37.8339 25.1022 39.9998 25.1022Z" stroke="#284664" stroke-width="1.5" stroke-miterlimit="10" stroke-linecap="round" stroke-linejoin="round"/>
</g>
</g>
</g>
<defs>
<clipPath id="clip0_1122_62219">
<rect width="80" height="80" fill="white"/>
</clipPath>
</defs>
</svg>
